<?xml version="1.0" encoding="UTF-8" standalone="no"?>
<!-- Created with Inkscape (http://www.inkscape.org/) -->

<svg
   xmlns:dc="http://purl.org/dc/elements/1.1/"
   xmlns:cc="http://creativecommons.org/ns#"
   xmlns:rdf="http://www.w3.org/1999/02/22-rdf-syntax-ns#"
   xmlns:svg="http://www.w3.org/2000/svg"
   xmlns="http://www.w3.org/2000/svg"
   xmlns:xlink="http://www.w3.org/1999/xlink"
   xmlns:sodipodi="http://sodipodi.sourceforge.net/DTD/sodipodi-0.dtd"
   xmlns:inkscape="http://www.inkscape.org/namespaces/inkscape"
   width="299.67682"
   height="68.672722"
   id="svg2"
   version="1.1"
   inkscape:version="0.48.2 r9819"
   sodipodi:docname="logo.svg"
   inkscape:export-filename="/home/ludi/projects/leikor.de/view_sketch/img/leikor_new.jpg.png"
   inkscape:export-xdpi="200"
   inkscape:export-ydpi="200">
  <defs
     id="defs4">
    <linearGradient
       id="linearGradient3860">
      <stop
         style="stop-color:#323232;stop-opacity:1;"
         offset="0"
         id="stop3862" />
      <stop
         id="stop3872"
         offset="0.40000001"
         style="stop-color:#505050;stop-opacity:1;" />
      <stop
         id="stop3870"
         offset="0.60000002"
         style="stop-color:#505050;stop-opacity:1;" />
      <stop
         style="stop-color:#323232;stop-opacity:1;"
         offset="1"
         id="stop3864" />
    </linearGradient>
    <linearGradient
       id="linearGradient3844">
      <stop
         style="stop-color:#e80e0e;stop-opacity:1;"
         offset="0"
         id="stop3846" />
      <stop
         id="stop3856"
         offset="0.40000001"
         style="stop-color:#bb0b0b;stop-opacity:1;" />
      <stop
         style="stop-color:#bb0b0b;stop-opacity:1;"
         offset="0.60000002"
         id="stop3858" />
      <stop
         style="stop-color:#e80e0e;stop-opacity:1;"
         offset="1"
         id="stop3848" />
    </linearGradient>
    <inkscape:path-effect
       effect="ruler"
       id="path-effect3064"
       is_visible="true"
       unit="px"
       mark_distance="20"
       mark_length="14"
       minor_mark_length="7"
       major_mark_steps="5"
       shift="0"
       offset="0"
       mark_dir="left"
       border_marks="both" />
    <inkscape:path-effect
       effect="gears"
       id="path-effect3062"
       is_visible="true"
       teeth="10"
       phi="5" />
    <inkscape:path-effect
       effect="vonkoch"
       id="path-effect3060"
       is_visible="true"
       ref_path="m 132.19579,132.10822 283.07813,0"
       generator="m 132.19579,159.33674 94.35938,0 m 94.35937,0 94.35938,0"
       similar_only="false"
       nbgenerations="1"
       drawall="true"
       maxComplexity="1000" />
    <inkscape:path-effect
       effect="sketch"
       id="path-effect3058"
       is_visible="true"
       nbiter_approxstrokes="5"
       strokelength="100"
       strokelength_rdm="0.3;1"
       strokeoverlap="0.3"
       strokeoverlap_rdm="0.3;1"
       ends_tolerance="0.1;1"
       parallel_offset="5;1"
       tremble_size="5;1"
       tremble_frequency="1"
       nbtangents="5"
       tgt_places_rdmness="1;1"
       tgtscale="10"
       tgtlength="100"
       tgtlength_rdm="0.3;1" />
    <inkscape:path-effect
       effect="envelope"
       id="path-effect3056"
       is_visible="true"
       yy="true"
       xx="true"
       bendpath1="m 132.32812,104.98469 c 114.65721,11.1414 167.14915,11.24904 283.07813,0"
       bendpath2="m 415.40625,104.98469 0,54.45703"
       bendpath3="m 132.32812,159.44172 c 115.12059,-10.75866 167.72366,-11.48133 283.07813,0"
       bendpath4="m 132.32812,104.98469 0,54.45703"
       bendpath1-nodetypes="cc"
       bendpath3-nodetypes="cc" />
    <linearGradient
       inkscape:collect="always"
       xlink:href="#linearGradient3844"
       id="linearGradient3854"
       x1="130.87828"
       y1="132.07146"
       x2="416.36472"
       y2="132.07146"
       gradientUnits="userSpaceOnUse" />
    <linearGradient
       inkscape:collect="always"
       xlink:href="#linearGradient3860"
       id="linearGradient3868"
       x1="130.87828"
       y1="132.07146"
       x2="416.36472"
       y2="132.07146"
       gradientUnits="userSpaceOnUse" />
    <linearGradient
       inkscape:collect="always"
       xlink:href="#linearGradient3844"
       id="linearGradient3874"
       gradientUnits="userSpaceOnUse"
       x1="130.87828"
       y1="132.07146"
       x2="416.36472"
       y2="132.07146" />
    <linearGradient
       inkscape:collect="always"
       xlink:href="#linearGradient3860"
       id="linearGradient3876"
       gradientUnits="userSpaceOnUse"
       x1="130.87828"
       y1="132.07146"
       x2="416.36472"
       y2="132.07146" />
    <linearGradient
       inkscape:collect="always"
       xlink:href="#linearGradient3844"
       id="linearGradient3878"
       gradientUnits="userSpaceOnUse"
       x1="130.87828"
       y1="132.07146"
       x2="416.36472"
       y2="132.07146" />
    <linearGradient
       inkscape:collect="always"
       xlink:href="#linearGradient3860"
       id="linearGradient3880"
       gradientUnits="userSpaceOnUse"
       x1="130.87828"
       y1="132.07146"
       x2="416.36472"
       y2="132.07146" />
    <linearGradient
       inkscape:collect="always"
       xlink:href="#linearGradient3844"
       id="linearGradient3882"
       gradientUnits="userSpaceOnUse"
       x1="130.87828"
       y1="132.07146"
       x2="416.36472"
       y2="132.07146" />
    <linearGradient
       inkscape:collect="always"
       xlink:href="#linearGradient3860"
       id="linearGradient3884"
       gradientUnits="userSpaceOnUse"
       x1="130.87828"
       y1="132.07146"
       x2="416.36472"
       y2="132.07146" />
    <linearGradient
       inkscape:collect="always"
       xlink:href="#linearGradient3844"
       id="linearGradient3886"
       gradientUnits="userSpaceOnUse"
       x1="130.87828"
       y1="132.07146"
       x2="416.36472"
       y2="132.07146" />
    <linearGradient
       inkscape:collect="always"
       xlink:href="#linearGradient3860"
       id="linearGradient3888"
       gradientUnits="userSpaceOnUse"
       x1="130.87828"
       y1="132.07146"
       x2="416.36472"
       y2="132.07146" />
    <linearGradient
       inkscape:collect="always"
       xlink:href="#linearGradient3844"
       id="linearGradient3890"
       gradientUnits="userSpaceOnUse"
       x1="130.87828"
       y1="132.07146"
       x2="416.36472"
       y2="132.07146" />
    <linearGradient
       inkscape:collect="always"
       xlink:href="#linearGradient3860"
       id="linearGradient3892"
       gradientUnits="userSpaceOnUse"
       x1="130.87828"
       y1="132.07146"
       x2="416.36472"
       y2="132.07146" />
    <linearGradient
       inkscape:collect="always"
       xlink:href="#linearGradient3844"
       id="linearGradient3894"
       gradientUnits="userSpaceOnUse"
       x1="130.87828"
       y1="132.07146"
       x2="416.36472"
       y2="132.07146" />
    <linearGradient
       inkscape:collect="always"
       xlink:href="#linearGradient3860"
       id="linearGradient3896"
       gradientUnits="userSpaceOnUse"
       x1="130.87828"
       y1="132.07146"
       x2="416.36472"
       y2="132.07146" />
  </defs>
  <sodipodi:namedview
     id="base"
     pagecolor="#ffffff"
     bordercolor="#666666"
     borderopacity="1.0"
     inkscape:pageopacity="0.0"
     inkscape:pageshadow="2"
     inkscape:zoom="1.6357062"
     inkscape:cx="137.61127"
     inkscape:cy="9.882104"
     inkscape:document-units="px"
     inkscape:current-layer="layer1"
     showgrid="false"
     inkscape:window-width="1024"
     inkscape:window-height="719"
     inkscape:window-x="0"
     inkscape:window-y="0"
     inkscape:window-maximized="1"
     inkscape:snap-global="true"
     inkscape:snap-grids="false"
     fit-margin-top="2"
     fit-margin-left="2"
     fit-margin-right="2"
     fit-margin-bottom="2"
     units="mm">
    <inkscape:grid
       type="xygrid"
       id="grid3066"
       empspacing="5"
       visible="true"
       enabled="true"
       snapvisiblegridlinesonly="true" />
  </sodipodi:namedview>
  <metadata
     id="metadata7">
    <rdf:RDF>
      <cc:Work
         rdf:about="">
        <dc:format>image/svg+xml</dc:format>
        <dc:type
           rdf:resource="http://purl.org/dc/dcmitype/StillImage" />
        <dc:title></dc:title>
      </cc:Work>
    </rdf:RDF>
  </metadata>
  <g
     inkscape:label="Ebene 1"
     inkscape:groupmode="layer"
     id="layer1"
     transform="translate(-231.5873,-94.269598)">
    <g
       transform="translate(107.80421,-3.4667474)"
       style="font-size:72px;font-style:normal;font-variant:normal;font-weight:normal;font-stretch:normal;line-height:125%;letter-spacing:0px;word-spacing:0px;fill:url(#linearGradient3854);fill-opacity:1;stroke:url(#linearGradient3868);stroke-width:2;stroke-miterlimit:4;stroke-opacity:1;stroke-dasharray:none;font-family:Sans;-inkscape-font-specification:Sans"
       id="flowRoot2985"
       inkscape:path-effect="#path-effect3056">
      <path
         d="m 132.12203,105.82296 c 4.50204,0.19832 9.0039,0.43424 13.50605,0.69856 -0.32684,3.27511 -0.36262,6.64268 -0.33317,10.06576 0.0295,3.42308 0.12415,6.90166 0.17133,10.39896 0.0472,3.4973 0.0469,7.01331 -6.4e-4,10.51142 -0.0475,3.4981 -0.14215,6.9783 -0.17055,10.40416 7.84347,-0.14308 15.70216,-0.342 23.58025,-0.57011 0.0178,3.1052 0.10616,6.0742 0.4503,8.81856 -12.41506,0.87821 -24.82046,1.66375 -37.22555,2.17218 -0.3329,-4.37738 -0.2376,-8.75259 -0.12931,-13.12708 0.10829,-4.37449 0.22957,-8.74827 0.22743,-13.1223 -0.002,-4.37403 -0.1277,-8.7483 -0.23431,-13.12325 -0.10662,-4.37496 -0.19428,-8.7506 0.15817,-13.12686 z"
         style="font-weight:bold;fill:url(#linearGradient3874);fill-opacity:1;stroke:url(#linearGradient3876);stroke-width:2;stroke-miterlimit:4;stroke-opacity:1;stroke-dasharray:none;-inkscape-font-specification:Sans Bold"
         id="path3044"
         inkscape:original-d="m 132.32812,105.93391 13.53516,0 0,42.25781 23.76563,0 0,10.23047 -37.30079,0 0,-52.48828"
         inkscape:connector-curvature="0" />
      <path
         d="m 177.87983,108.76916 c 10.2159,0.78226 20.43902,1.59117 30.67325,2.31855 0.0886,0.006 0.17724,0.0126 0.26586,0.0189 1.86023,0.13192 3.72083,0.26089 5.5818,0.38634 -0.30738,1.90675 -0.42383,4.26351 -0.4773,6.89646 -1.86848,-0.0585 -3.73579,-0.11857 -5.6019,-0.17974 -0.0889,-0.003 -0.17775,-0.006 -0.26663,-0.009 -5.73487,-0.18848 -11.45845,-0.38672 -17.17094,-0.58423 -0.044,2.73261 -0.0209,5.66022 -0.006,8.66573 5.70021,0.0651 11.41458,0.13127 17.14312,0.19441 0.0888,9.8e-4 0.17756,0.002 0.26634,0.003 1.40585,0.0154 2.81255,0.0307 4.2201,0.0457 0.006,3.01019 0.0107,6.1292 0.005,9.18528 -1.40725,0.008 -2.81365,0.017 -4.21916,0.0255 -0.0888,5.4e-4 -0.17753,0.001 -0.26628,0.002 -5.7272,0.0349 -11.43996,0.0704 -17.13826,0.10452 -0.0138,3.74024 -0.0566,7.41291 -0.006,10.8001 5.71235,-0.18671 11.43587,-0.37545 17.17072,-0.55655 0.0889,-0.003 0.17775,-0.006 0.26663,-0.008 2.12492,-0.067 4.25141,-0.13279 6.37941,-0.19693 0.0509,2.6515 0.16215,5.03315 0.45885,6.96991 -2.11971,0.13887 -4.23892,0.28195 -6.35762,0.4284 -0.0886,0.006 -0.17728,0.0123 -0.26592,0.0184 -10.2363,0.70886 -20.4611,1.48895 -30.67806,2.23754 -0.44699,-3.31409 -0.49409,-7.07493 -0.48784,-11.05687 0.006,-3.98194 0.0658,-8.18499 0.0647,-12.38333 -0.001,-4.19834 -0.0629,-8.39198 -0.0668,-12.35492 -0.004,-3.96293 0.0498,-7.69516 0.51235,-10.97051 z"
         style="font-weight:bold;fill:url(#linearGradient3878);fill-opacity:1;stroke:url(#linearGradient3880);stroke-width:2;stroke-miterlimit:4;stroke-opacity:1;stroke-dasharray:none;-inkscape-font-specification:Sans Bold"
         id="path3046"
         inkscape:original-d="m 178.17187,105.93391 36.52735,0 0,10.23047 -22.99219,0 0,9.77343 21.62109,0 0,10.23047 -21.62109,0 0,12.02344 23.76563,0 0,10.23047 -37.30079,0 0,-52.48828"
         inkscape:connector-curvature="0" />
      <path
         d="m 227.11148,112.28806 c 4.5205,0.25863 9.04296,0.48919 13.56704,0.68513 -0.25618,2.01885 -0.32056,4.91347 -0.34615,8.2495 -0.0256,3.33603 -0.0124,7.11346 -0.012,10.89786 4.2e-4,3.7844 -0.0119,7.57576 0.0128,10.93957 0.0248,3.36381 0.0866,6.30008 0.33686,8.37421 -4.52565,0.19761 -9.04955,0.42788 -13.57137,0.68413 -0.32661,-2.27041 -0.40215,-5.3413 -0.43032,-8.80892 -0.0282,-3.46762 -0.009,-7.33198 -0.009,-11.18938 -5.2e-4,-3.85741 -0.0208,-7.70786 0.009,-11.14775 0.0295,-3.43988 0.10876,-6.46918 0.44386,-8.68435 z"
         style="font-weight:bold;fill:url(#linearGradient3882);fill-opacity:1;stroke:url(#linearGradient3884);stroke-width:2;stroke-miterlimit:4;stroke-opacity:1;stroke-dasharray:none;-inkscape-font-specification:Sans Bold"
         id="path3048"
         inkscape:original-d="m 227.39062,105.93391 13.53516,0 0,52.48828 -13.53516,0 0,-52.48828"
         inkscape:connector-curvature="0" />
      <path
         d="m 254.04355,113.44616 c 4.52686,0.12268 9.0549,0.20554 13.58365,0.24488 -0.0856,2.64685 -0.084,7.2976 -0.0846,12.49917 1.943,-1.52762 3.88727,-3.00621 5.83061,-4.40235 0.1293,-0.0929 0.25858,-0.18543 0.38786,-0.27759 4.53411,-3.23184 9.07449,-5.99526 13.45169,-7.92181 5.2571,-0.0994 10.51296,-0.25477 15.76685,-0.45892 -4.01845,2.02495 -8.25339,4.70114 -12.50892,7.77065 -4.25554,3.06952 -8.54019,6.52772 -12.81987,10.0315 4.7205,3.88812 9.44562,7.83929 14.14575,11.3714 4.70012,3.53211 9.38979,6.63731 13.81319,8.95813 -5.66703,-0.22263 -11.33669,-0.39003 -17.00799,-0.49348 -4.82098,-2.19356 -9.83898,-5.40719 -14.83931,-9.12717 -0.12933,-0.0962 -0.25866,-0.19275 -0.388,-0.28961 -1.944,-1.45596 -3.88819,-2.9845 -5.83121,-4.5509 7.8e-4,5.71295 -0.006,10.94969 0.0865,13.88504 -4.53089,0.0479 -9.06093,0.13781 -13.58963,0.26581 -0.16118,-1.93739 -0.2028,-4.77928 -0.22017,-8.07002 -0.0174,-3.29073 -0.0105,-7.0303 -0.0108,-10.76312 -3.4e-4,-3.73282 -0.008,-7.45888 0.01,-10.72265 0.0176,-3.26377 0.0604,-6.06525 0.2247,-7.94896 z"
         style="font-weight:bold;fill:url(#linearGradient3886);fill-opacity:1;stroke:url(#linearGradient3888);stroke-width:2;stroke-miterlimit:4;stroke-opacity:1;stroke-dasharray:none;-inkscape-font-specification:Sans Bold"
         id="path3050"
         inkscape:original-d="m 254.25,105.93391 13.53516,0 0,19.16015 19.51171,-19.16015 15.71485,0 -25.27735,24.85547 27.87891,27.63281 -16.94531,0 -20.88281,-20.67188 0,20.67188 -13.53516,0 0,-52.48828"
         inkscape:connector-curvature="0" />
      <path
         d="m 331.28622,117.40478 c -2.07483,0.0712 -3.90935,0.40991 -5.50858,1.02625 -1.59923,0.61634 -2.96401,1.51253 -4.10104,2.74163 -1.13705,1.22914 -1.99378,2.73876 -2.56751,4.56299 -0.57374,1.82423 -0.86379,3.9673 -0.86367,6.39256 9e-5,2.41502 0.29034,4.55194 0.86457,6.37332 0.57424,1.82138 1.43176,3.33134 2.56977,4.56249 1.13798,1.23116 2.50382,2.12863 4.10387,2.74493 1.60004,0.6163 3.43512,0.95363 5.51,1.02239 3.0574,0.10132 5.62596,-0.40747 7.68508,-1.66165 0,0 0,0 0,0 0.10231,-0.0623 0.20336,-0.12652 0.30314,-0.19259 0,0 0,0 0,0 0.63275,-0.41912 1.21444,-0.91387 1.74429,-1.48915 1.14694,-1.24529 1.99975,-2.8107 2.56326,-4.70948 0.56352,-1.89878 0.83905,-4.1339 0.83909,-6.65813 -1e-5,-2.53493 -0.27551,-4.77716 -0.83949,-6.67947 -0.56397,-1.90232 -1.41771,-3.46773 -2.56578,-4.71017 -0.53038,-0.57395 -1.11261,-1.06731 -1.74589,-1.48502 0,0 0,0 0,0 -0.0999,-0.0658 -0.20099,-0.12982 -0.30338,-0.19194 0,0 0,0 0,0 -2.06074,-1.24966 -4.63043,-1.75383 -7.68773,-1.64896 z m -0.52423,-6.26687 c 2.72765,-0.19083 5.28987,-0.24752 7.68498,-0.12498 0,0 0,0 0,0 0.10228,0.005 0.20425,0.0108 0.30591,0.0167 4.88337,0.28331 9.06142,1.34433 12.35635,3.63418 2.48481,1.72692 4.31434,4.05146 5.50518,6.98244 1.19084,2.93097 1.75176,6.47524 1.75159,10.47329 -2.2e-4,3.98707 -0.56139,7.52419 -1.7504,10.45244 -1.189,2.92825 -3.01469,5.25444 -5.4949,6.98687 -3.28884,2.29722 -7.46037,3.36796 -12.34124,3.662 -0.10161,0.006 -0.20353,0.0119 -0.30576,0.0174 0,0 0,0 0,0 -2.39402,0.12783 -4.95605,0.0766 -7.6844,-0.109 -4.2092,-0.28635 -7.90825,-0.81486 -11.14679,-1.62331 -3.23853,-0.80845 -6.02165,-1.90755 -8.38546,-3.52932 -2.352,-1.62142 -4.13831,-3.68673 -5.33847,-6.32491 -1.20015,-2.63817 -1.81132,-5.86395 -1.81152,-9.51629 -2.1e-4,-3.6624 0.61054,-6.89075 1.80933,-9.52688 1.19878,-2.63614 2.98277,-4.69513 5.33157,-6.31067 2.3606,-1.61588 5.13977,-2.71197 8.37481,-3.5217 3.23504,-0.80973 6.93112,-1.34378 11.13922,-1.63822 z"
         style="font-weight:bold;fill:url(#linearGradient3890);fill-opacity:1;stroke:url(#linearGradient3892);stroke-width:2;stroke-miterlimit:4;stroke-opacity:1;stroke-dasharray:none;-inkscape-font-specification:Sans Bold"
         id="path3052"
         inkscape:original-d="m 330.82031,114.79328 c -4.12502,5e-5 -7.32424,1.52348 -9.59765,4.57032 -2.27346,3.04691 -3.41018,7.33597 -3.41016,12.86718 -2e-5,5.50784 1.1367,9.78518 3.41016,12.83203 2.27341,3.04689 5.47263,4.57033 9.59765,4.57032 4.14841,1e-5 7.35934,-1.52343 9.63281,-4.57032 2.2734,-3.04685 3.41012,-7.32419 3.41016,-12.83203 -4e-5,-5.53121 -1.13676,-9.82027 -3.41016,-12.86718 -2.27347,-3.04684 -5.4844,-4.57027 -9.63281,-4.57032 m 0,-9.80859 c 8.43746,5e-5 15.04683,2.41411 19.82813,7.24219 4.78119,4.82816 7.17181,11.49613 7.17187,20.0039 -6e-5,8.4844 -2.39068,15.14064 -7.17187,19.96875 -4.7813,4.82813 -11.39067,7.24219 -19.82813,7.24219 -8.41408,0 -15.02345,-2.41406 -19.82812,-7.24219 -4.78126,-4.82811 -7.17188,-11.48435 -7.17188,-19.96875 0,-8.50777 2.39062,-15.17574 7.17188,-20.0039 4.80467,-4.82808 11.41404,-7.24214 19.82812,-7.24219"
         inkscape:connector-curvature="0" />
      <path
         d="m 387.56786,129.15418 c 2.80198,-0.009 4.80483,-0.53444 6.01851,-1.57926 1.23675,-1.04484 1.87417,-2.76339 1.91332,-5.12127 0.0387,-2.33491 -0.55387,-3.97339 -1.77867,-4.93052 -1.20163,-0.95756 -3.21581,-1.38616 -6.03225,-1.30563 -1.8854,0.0539 -3.77185,0.11023 -5.65939,0.16847 0.0316,4.09324 -0.0676,8.41949 -0.0931,12.78853 1.87868,-0.007 3.75586,-0.014 5.63157,-0.0203 z m -5.60629,9.1216 c 0.0329,3.19873 0.0879,6.34882 0.0717,9.37386 -0.0161,3.02503 -0.10339,5.92502 -0.43772,8.6235 -4.50359,-0.32485 -9.0085,-0.66275 -13.51514,-1.00387 0.44811,-3.23223 0.49695,-6.94086 0.49195,-10.88706 -0.005,-3.9462 -0.0638,-8.12996 -0.0631,-12.3125 6.9e-4,-4.18254 0.0609,-8.36384 0.0619,-12.30518 9.8e-4,-3.94133 -0.0573,-7.6427 -0.52551,-10.8654 6.8833,-0.52738 13.76319,-1.04523 20.64116,-1.51922 6.90134,-0.47556 12.09459,0.25045 15.39357,2.33368 1.66111,1.0412 2.90408,2.45599 3.70748,4.23415 0.80341,1.77816 1.16583,3.91823 1.11005,6.40595 -0.0772,3.44104 -0.96912,6.28732 -2.65082,8.50997 -1.65874,2.22267 -4.13158,3.85953 -7.45128,4.90212 1.8254,0.42152 3.45543,1.38011 4.90408,2.87645 1.47135,1.47313 2.97739,3.71742 4.52379,6.72727 2.52564,4.94632 5.09786,9.8695 7.14961,14.94203 -4.79243,-0.211 -9.58486,-0.46441 -14.37796,-0.74871 -1.73061,-4.14194 -3.87373,-8.30459 -6.03901,-12.53406 -1.30867,-2.55365 -2.63745,-4.32056 -3.97086,-5.27043 -1.3103,-0.94961 -3.05227,-1.43168 -5.23146,-1.44982 -1.26348,-0.0105 -2.52761,-0.0214 -3.7924,-0.0327 z"
         style="font-weight:bold;fill:url(#linearGradient3894);fill-opacity:1;stroke:url(#linearGradient3896);stroke-width:2;stroke-miterlimit:4;stroke-opacity:1;stroke-dasharray:none;-inkscape-font-specification:Sans Bold"
         id="path3054"
         inkscape:original-d="m 387.24609,129.20735 c 2.83591,3e-5 4.86325,-0.52732 6.08203,-1.58204 1.24216,-1.05465 1.86325,-2.78902 1.86329,-5.20312 -4e-5,-2.39059 -0.62113,-4.10152 -1.86329,-5.13281 -1.21878,-1.03121 -3.24612,-1.54684 -6.08203,-1.54688 l -5.69531,0 0,13.46485 5.69531,0 m -5.69531,9.35156 0,19.86328 -13.53516,0 0,-52.48828 20.67188,0 c 6.91403,5e-5 11.97652,1.16021 15.1875,3.48047 3.23433,2.32036 4.85152,5.98832 4.85156,11.0039 -4e-5,3.46879 -0.84379,6.31644 -2.53125,8.54297 -1.6641,2.22659 -4.18363,3.86722 -7.55859,4.92188 1.85152,0.4219 3.50386,1.38283 4.95703,2.88281 1.47652,1.47658 2.9648,3.72658 4.46484,6.75 l 7.34766,14.90625 -14.41406,0 -6.39844,-13.04297 c -1.28909,-2.62498 -2.60159,-4.41795 -3.9375,-5.37891 -1.31253,-0.96091 -3.07034,-1.44138 -5.27344,-1.4414 l -3.83203,0"
         inkscape:connector-curvature="0" />
    </g>
  </g>
</svg>
